<?xml version="1.0" encoding="UTF-8" standalone="no"?>
<!DOCTYPE svg PUBLIC "-//W3C//DTD SVG 1.1//EN" "http://www.w3.org/Graphics/SVG/1.1/DTD/svg11.dtd">
<svg width="100%" height="100%" viewBox="0 0 564 160" version="1.1" xmlns="http://www.w3.org/2000/svg" xmlns:xlink="http://www.w3.org/1999/xlink" xml:space="preserve" xmlns:serif="http://www.serif.com/" style="fill-rule:evenodd;clip-rule:evenodd;stroke-linejoin:round;stroke-miterlimit:2;">
    <g id="Text" transform="matrix(1.19294,0,0,1.19294,-32.6648,-66.658)">
        <g transform="matrix(1,0,0,1,-86.3149,101.21)">
            <g transform="matrix(50,0,0,50,241.765,39.0906)">
                <path d="M0.234,-0L0.01,-0.7L0.253,-0.7L0.434,-0.109L0.312,-0.109L0.504,-0.7L0.721,-0.7L0.9,-0.109L0.783,-0.109L0.972,-0.7L1.196,-0.7L0.972,-0L0.719,-0L0.573,-0.484L0.641,-0.484L0.487,-0L0.234,-0Z" style="fill:white;fill-rule:nonzero;"/>
            </g>
            <g transform="matrix(50,0,0,50,300.815,39.0906)">
                <path d="M0.425,0.016C0.368,0.016 0.315,0.007 0.267,-0.011C0.218,-0.029 0.176,-0.055 0.141,-0.088C0.106,-0.121 0.078,-0.159 0.059,-0.204C0.039,-0.249 0.029,-0.297 0.029,-0.35C0.029,-0.403 0.039,-0.452 0.059,-0.496C0.078,-0.54 0.106,-0.579 0.141,-0.612C0.176,-0.645 0.218,-0.671 0.266,-0.689C0.315,-0.707 0.367,-0.716 0.424,-0.716C0.481,-0.716 0.534,-0.707 0.582,-0.689C0.63,-0.671 0.672,-0.645 0.707,-0.612C0.742,-0.579 0.77,-0.54 0.79,-0.496C0.809,-0.452 0.819,-0.403 0.819,-0.35C0.819,-0.297 0.809,-0.249 0.79,-0.204C0.77,-0.159 0.742,-0.121 0.707,-0.088C0.672,-0.055 0.63,-0.029 0.582,-0.011C0.534,0.007 0.482,0.016 0.425,0.016ZM0.424,-0.175C0.446,-0.175 0.466,-0.179 0.486,-0.187C0.505,-0.195 0.521,-0.207 0.536,-0.222C0.55,-0.237 0.561,-0.255 0.569,-0.277C0.577,-0.298 0.581,-0.323 0.581,-0.35C0.581,-0.377 0.577,-0.402 0.569,-0.424C0.561,-0.445 0.55,-0.464 0.536,-0.479C0.521,-0.494 0.505,-0.505 0.486,-0.513C0.467,-0.521 0.446,-0.525 0.424,-0.525C0.402,-0.525 0.382,-0.521 0.363,-0.513C0.343,-0.505 0.327,-0.494 0.313,-0.479C0.298,-0.464 0.287,-0.445 0.279,-0.424C0.271,-0.402 0.267,-0.377 0.267,-0.35C0.267,-0.323 0.271,-0.298 0.279,-0.277C0.287,-0.255 0.298,-0.237 0.313,-0.222C0.327,-0.207 0.343,-0.195 0.362,-0.187C0.381,-0.179 0.402,-0.175 0.424,-0.175Z" style="fill:white;fill-rule:nonzero;"/>
            </g>
            <g transform="matrix(50,0,0,50,343.215,39.0906)">
                <path d="M0.057,-0L0.057,-0.7L0.251,-0.7L0.531,-0.243L0.429,-0.243L0.701,-0.7L0.895,-0.7L0.897,-0L0.682,-0L0.68,-0.376L0.714,-0.376L0.528,-0.063L0.424,-0.063L0.23,-0.376L0.272,-0.376L0.272,-0L0.057,-0Z" style="fill:white;fill-rule:nonzero;"/>
            </g>
            <g transform="matrix(50,0,0,50,390.915,39.0906)">
                <path d="M0.057,-0L0.057,-0.7L0.626,-0.7L0.626,-0.522L0.289,-0.522L0.289,-0.178L0.639,-0.178L0.639,-0L0.057,-0ZM0.273,-0.27L0.273,-0.44L0.585,-0.44L0.585,-0.27L0.273,-0.27Z" style="fill:white;fill-rule:nonzero;"/>
            </g>
            <g transform="matrix(50,0,0,50,424.565,39.0906)">
                <path d="M0.057,-0L0.057,-0.7L0.251,-0.7L0.607,-0.274L0.517,-0.274L0.517,-0.7L0.747,-0.7L0.747,-0L0.553,-0L0.197,-0.426L0.287,-0.426L0.287,-0L0.057,-0Z" style="fill:white;fill-rule:nonzero;"/>
            </g>
            <g transform="matrix(50,0,0,50,464.765,39.0906)">
                <path d="M0.047,-0.4L0.032,-0.7L0.222,-0.7L0.207,-0.4L0.047,-0.4Z" style="fill:white;fill-rule:nonzero;"/>
            </g>
            <g transform="matrix(50,0,0,50,477.465,39.0906)">
                <path d="M0.318,0.016C0.259,0.016 0.203,0.009 0.148,-0.004C0.093,-0.017 0.048,-0.035 0.013,-0.056L0.089,-0.228C0.122,-0.209 0.16,-0.193 0.201,-0.182C0.242,-0.17 0.281,-0.164 0.32,-0.164C0.343,-0.164 0.361,-0.166 0.374,-0.169C0.387,-0.172 0.396,-0.176 0.402,-0.182C0.408,-0.187 0.411,-0.194 0.411,-0.202C0.411,-0.215 0.404,-0.225 0.39,-0.232C0.376,-0.239 0.358,-0.245 0.335,-0.251C0.312,-0.256 0.286,-0.261 0.259,-0.267C0.232,-0.272 0.204,-0.28 0.177,-0.289C0.149,-0.298 0.124,-0.311 0.101,-0.326C0.078,-0.341 0.059,-0.362 0.045,-0.387C0.031,-0.411 0.024,-0.443 0.024,-0.48C0.024,-0.523 0.036,-0.563 0.061,-0.599C0.085,-0.634 0.121,-0.663 0.17,-0.684C0.218,-0.705 0.278,-0.716 0.35,-0.716C0.397,-0.716 0.444,-0.711 0.49,-0.701C0.536,-0.691 0.577,-0.676 0.614,-0.655L0.543,-0.484C0.508,-0.501 0.475,-0.514 0.443,-0.523C0.41,-0.532 0.379,-0.536 0.348,-0.536C0.325,-0.536 0.307,-0.534 0.294,-0.53C0.281,-0.526 0.271,-0.521 0.266,-0.514C0.26,-0.507 0.257,-0.5 0.257,-0.492C0.257,-0.48 0.264,-0.471 0.278,-0.464C0.292,-0.456 0.311,-0.451 0.334,-0.446C0.357,-0.441 0.382,-0.436 0.41,-0.431C0.437,-0.426 0.465,-0.418 0.492,-0.409C0.519,-0.4 0.545,-0.387 0.568,-0.372C0.591,-0.357 0.609,-0.337 0.623,-0.312C0.637,-0.287 0.644,-0.257 0.644,-0.22C0.644,-0.177 0.632,-0.138 0.608,-0.103C0.583,-0.067 0.547,-0.038 0.499,-0.017C0.451,0.005 0.391,0.016 0.318,0.016Z" style="fill:white;fill-rule:nonzero;"/>
            </g>
            <g transform="matrix(50,0,0,50,241.765,87.9895)">
                <path d="M0.511,-0L0.511,-0.7L0.747,-0.7L0.747,-0L0.511,-0ZM0.057,-0L0.057,-0.7L0.293,-0.7L0.293,-0L0.057,-0ZM0.277,-0.258L0.277,-0.452L0.527,-0.452L0.527,-0.258L0.277,-0.258Z" style="fill:white;fill-rule:nonzero;"/>
            </g>
            <g transform="matrix(50,0,0,50,281.965,87.9895)">
                <path d="M-0.019,-0L0.287,-0.7L0.519,-0.7L0.825,-0L0.581,-0L0.355,-0.588L0.447,-0.588L0.221,-0L-0.019,-0ZM0.163,-0.122L0.223,-0.292L0.545,-0.292L0.605,-0.122L0.163,-0.122Z" style="fill:white;fill-rule:nonzero;"/>
            </g>
            <g transform="matrix(50,0,0,50,321.765,87.9895)">
                <path d="M0.419,0.016C0.363,0.016 0.311,0.007 0.264,-0.011C0.216,-0.028 0.175,-0.053 0.14,-0.086C0.105,-0.119 0.077,-0.157 0.058,-0.202C0.039,-0.247 0.029,-0.296 0.029,-0.35C0.029,-0.404 0.039,-0.453 0.058,-0.498C0.077,-0.543 0.105,-0.581 0.14,-0.614C0.175,-0.647 0.216,-0.672 0.264,-0.69C0.311,-0.707 0.363,-0.716 0.419,-0.716C0.488,-0.716 0.549,-0.704 0.602,-0.68C0.655,-0.656 0.698,-0.621 0.733,-0.576L0.584,-0.443C0.563,-0.469 0.541,-0.489 0.516,-0.504C0.491,-0.518 0.462,-0.525 0.431,-0.525C0.406,-0.525 0.384,-0.521 0.364,-0.513C0.344,-0.505 0.327,-0.493 0.313,-0.478C0.298,-0.463 0.287,-0.444 0.279,-0.423C0.271,-0.401 0.267,-0.377 0.267,-0.35C0.267,-0.323 0.271,-0.299 0.279,-0.278C0.287,-0.256 0.298,-0.237 0.313,-0.222C0.327,-0.207 0.344,-0.195 0.364,-0.187C0.384,-0.179 0.406,-0.175 0.431,-0.175C0.462,-0.175 0.491,-0.182 0.516,-0.197C0.541,-0.211 0.563,-0.231 0.584,-0.257L0.733,-0.124C0.698,-0.079 0.655,-0.045 0.602,-0.021C0.549,0.004 0.488,0.016 0.419,0.016Z" style="fill:white;fill-rule:nonzero;"/>
            </g>
            <g transform="matrix(50,0,0,50,358.615,87.9895)">
                <path d="M0.268,-0.15L0.255,-0.409L0.519,-0.7L0.776,-0.7L0.48,-0.374L0.349,-0.24L0.268,-0.15ZM0.057,-0L0.057,-0.7L0.289,-0.7L0.289,-0L0.057,-0ZM0.517,-0L0.311,-0.272L0.464,-0.434L0.79,-0L0.517,-0Z" style="fill:white;fill-rule:nonzero;"/>
            </g>
            <g transform="matrix(50,0,0,50,395.115,87.9895)">
                <path d="M-0.019,-0L0.287,-0.7L0.519,-0.7L0.825,-0L0.581,-0L0.355,-0.588L0.447,-0.588L0.221,-0L-0.019,-0ZM0.163,-0.122L0.223,-0.292L0.545,-0.292L0.605,-0.122L0.163,-0.122Z" style="fill:white;fill-rule:nonzero;"/>
            </g>
            <g transform="matrix(50,0,0,50,433.665,87.9895)">
                <path d="M0.209,-0L0.209,-0.517L0.004,-0.517L0.004,-0.7L0.65,-0.7L0.65,-0.517L0.445,-0.517L0.445,-0L0.209,-0Z" style="fill:white;fill-rule:nonzero;"/>
            </g>
            <g transform="matrix(50,0,0,50,466.365,87.9895)">
                <path d="M0.511,-0L0.511,-0.7L0.747,-0.7L0.747,-0L0.511,-0ZM0.057,-0L0.057,-0.7L0.293,-0.7L0.293,-0L0.057,-0ZM0.277,-0.258L0.277,-0.452L0.527,-0.452L0.527,-0.258L0.277,-0.258Z" style="fill:white;fill-rule:nonzero;"/>
            </g>
            <g transform="matrix(50,0,0,50,506.565,87.9895)">
                <path d="M0.425,0.016C0.368,0.016 0.315,0.007 0.267,-0.011C0.218,-0.029 0.176,-0.055 0.141,-0.088C0.106,-0.121 0.078,-0.159 0.059,-0.204C0.039,-0.249 0.029,-0.297 0.029,-0.35C0.029,-0.403 0.039,-0.452 0.059,-0.496C0.078,-0.54 0.106,-0.579 0.141,-0.612C0.176,-0.645 0.218,-0.671 0.266,-0.689C0.315,-0.707 0.367,-0.716 0.424,-0.716C0.481,-0.716 0.534,-0.707 0.582,-0.689C0.63,-0.671 0.672,-0.645 0.707,-0.612C0.742,-0.579 0.77,-0.54 0.79,-0.496C0.809,-0.452 0.819,-0.403 0.819,-0.35C0.819,-0.297 0.809,-0.249 0.79,-0.204C0.77,-0.159 0.742,-0.121 0.707,-0.088C0.672,-0.055 0.63,-0.029 0.582,-0.011C0.534,0.007 0.482,0.016 0.425,0.016ZM0.424,-0.175C0.446,-0.175 0.466,-0.179 0.486,-0.187C0.505,-0.195 0.521,-0.207 0.536,-0.222C0.55,-0.237 0.561,-0.255 0.569,-0.277C0.577,-0.298 0.581,-0.323 0.581,-0.35C0.581,-0.377 0.577,-0.402 0.569,-0.424C0.561,-0.445 0.55,-0.464 0.536,-0.479C0.521,-0.494 0.505,-0.505 0.486,-0.513C0.467,-0.521 0.446,-0.525 0.424,-0.525C0.402,-0.525 0.382,-0.521 0.363,-0.513C0.343,-0.505 0.327,-0.494 0.313,-0.479C0.298,-0.464 0.287,-0.445 0.279,-0.424C0.271,-0.402 0.267,-0.377 0.267,-0.35C0.267,-0.323 0.271,-0.298 0.279,-0.277C0.287,-0.255 0.298,-0.237 0.313,-0.222C0.327,-0.207 0.343,-0.195 0.362,-0.187C0.381,-0.179 0.402,-0.175 0.424,-0.175Z" style="fill:white;fill-rule:nonzero;"/>
            </g>
            <g transform="matrix(50,0,0,50,548.965,87.9895)">
                <path d="M0.057,-0L0.057,-0.7L0.251,-0.7L0.607,-0.274L0.517,-0.274L0.517,-0.7L0.747,-0.7L0.747,-0L0.553,-0L0.197,-0.426L0.287,-0.426L0.287,-0L0.057,-0Z" style="fill:white;fill-rule:nonzero;"/>
            </g>
        </g>
        <g transform="matrix(1,0,0,1,-86.3149,49.9438)">
            <g transform="matrix(33.3333,0,0,33.3333,241.765,39.0906)">
                <path d="M0.395,0.01C0.299,0.01 0.224,-0.017 0.17,-0.071C0.116,-0.125 0.088,-0.203 0.088,-0.305L0.088,-0.7L0.218,-0.7L0.218,-0.31C0.218,-0.238 0.234,-0.186 0.265,-0.153C0.296,-0.12 0.339,-0.104 0.396,-0.104C0.452,-0.104 0.496,-0.12 0.527,-0.153C0.558,-0.186 0.573,-0.238 0.573,-0.31L0.573,-0.7L0.701,-0.7L0.701,-0.305C0.701,-0.203 0.674,-0.125 0.619,-0.071C0.565,-0.017 0.49,0.01 0.395,0.01Z" style="fill:white;fill-rule:nonzero;"/>
            </g>
            <g transform="matrix(33.3333,0,0,33.3333,268.065,39.0906)">
                <path d="M0.094,-0L0.094,-0.7L0.201,-0.7L0.507,-0.189L0.451,-0.189L0.752,-0.7L0.859,-0.7L0.86,-0L0.737,-0L0.736,-0.507L0.762,-0.507L0.506,-0.08L0.448,-0.08L0.188,-0.507L0.218,-0.507L0.218,-0L0.094,-0Z" style="fill:white;fill-rule:nonzero;"/>
            </g>
            <g transform="matrix(33.3333,0,0,33.3333,299.898,39.0906)">
                <path d="M0.311,0.01C0.256,0.01 0.204,0.002 0.154,-0.014C0.104,-0.029 0.064,-0.049 0.035,-0.074L0.08,-0.175C0.108,-0.153 0.143,-0.134 0.184,-0.12C0.226,-0.105 0.268,-0.098 0.311,-0.098C0.348,-0.098 0.377,-0.102 0.4,-0.11C0.423,-0.118 0.439,-0.129 0.45,-0.142C0.461,-0.156 0.466,-0.172 0.466,-0.189C0.466,-0.21 0.458,-0.227 0.443,-0.24C0.428,-0.253 0.408,-0.263 0.384,-0.271C0.359,-0.279 0.332,-0.287 0.303,-0.293C0.273,-0.3 0.243,-0.307 0.214,-0.316C0.184,-0.325 0.157,-0.337 0.132,-0.352C0.108,-0.366 0.088,-0.385 0.073,-0.409C0.058,-0.433 0.05,-0.464 0.05,-0.501C0.05,-0.539 0.06,-0.574 0.081,-0.605C0.101,-0.637 0.132,-0.662 0.173,-0.681C0.215,-0.7 0.268,-0.71 0.332,-0.71C0.374,-0.71 0.416,-0.705 0.457,-0.694C0.498,-0.683 0.534,-0.668 0.565,-0.648L0.524,-0.547C0.493,-0.566 0.46,-0.58 0.427,-0.589C0.394,-0.598 0.362,-0.602 0.331,-0.602C0.295,-0.602 0.266,-0.598 0.244,-0.589C0.221,-0.581 0.204,-0.569 0.194,-0.555C0.184,-0.541 0.179,-0.525 0.179,-0.507C0.179,-0.486 0.186,-0.468 0.201,-0.456C0.217,-0.443 0.236,-0.433 0.261,-0.425C0.285,-0.418 0.312,-0.41 0.342,-0.404C0.372,-0.397 0.401,-0.389 0.431,-0.38C0.461,-0.372 0.488,-0.36 0.512,-0.346C0.537,-0.332 0.556,-0.313 0.572,-0.289C0.587,-0.265 0.594,-0.235 0.594,-0.198C0.594,-0.161 0.584,-0.126 0.564,-0.095C0.543,-0.063 0.512,-0.038 0.47,-0.019C0.428,0 0.375,0.01 0.311,0.01Z" style="fill:white;fill-rule:nonzero;"/>
            </g>
            <g transform="matrix(33.3333,0,0,33.3333,320.865,39.0906)">
                <path d="M0.094,-0L0.094,-0.7L0.224,-0.7L0.224,-0.11L0.59,-0.11L0.59,-0L0.094,-0Z" style="fill:white;fill-rule:nonzero;"/>
            </g>
        </g>
    </g>
    <g id="Shapes" transform="matrix(1.58749,0,0,1.58749,-92.5316,-36.3386)">
        <rect x="58.3" y="47.778" width="9.036" height="42.714" style="fill:white;"/>
        <g transform="matrix(0.707107,0.707107,-0.707107,0.707107,78.4046,-21.1141)">
            <rect x="64.689" y="84.086" width="20.101" height="9.036" style="fill:white;"/>
        </g>
        <g transform="matrix(0.707107,0.707107,-0.707107,0.707107,78.3538,-36.1059)">
            <rect x="82.761" y="76.528" width="20.043" height="9.036" style="fill:white;"/>
        </g>
        <g transform="matrix(0.707107,-0.707107,0.707107,0.707107,-39.5052,86.0284)">
            <rect x="84.093" y="90.701" width="20.043" height="9.036" style="fill:white;"/>
        </g>
        <path d="M67.563,36.279L67.285,51.039L58.288,47.765L67.563,36.279Z" style="fill:white;fill-rule:nonzero;"/>
        <rect x="113.664" y="47.697" width="9.036" height="42.714" style="fill:white;"/>
        <g transform="matrix(0.707107,-0.707107,0.707107,0.707107,-39.5559,101.02)">
            <rect x="102.164" y="98.258" width="20.043" height="9.036" style="fill:white;"/>
        </g>
        <path d="M113.437,36.198L122.712,47.683L113.715,50.958L113.437,36.198Z" style="fill:white;fill-rule:nonzero;"/>
        <path d="M85.634,22.891L85.356,37.651L76.36,34.376L85.634,22.891Z" style="fill:white;fill-rule:nonzero;"/>
        <path d="M95.366,22.891L104.64,34.376L95.644,37.651L95.366,22.891Z" style="fill:white;fill-rule:nonzero;"/>
        <rect x="76.371" y="34.307" width="9.036" height="48.628" style="fill:white;"/>
        <rect x="95.593" y="34.307" width="9.036" height="48.628" style="fill:white;"/>
        <rect x="86.064" y="84.25" width="9.036" height="39.429" style="fill:white;"/>
        <g transform="matrix(-3.82857e-16,-1,1,-3.82857e-16,-40.7353,191.507)">
            <rect x="75.386" y="116.121" width="9.036" height="30.393" style="fill:white;"/>
        </g>
    </g>
</svg>
