<?xml version="1.0" encoding="UTF-8" standalone="no"?>
<!DOCTYPE svg PUBLIC "-//W3C//DTD SVG 1.1//EN" "http://www.w3.org/Graphics/SVG/1.1/DTD/svg11.dtd">
<svg width="100%" height="100%" viewBox="0 0 320 500" version="1.1" xmlns="http://www.w3.org/2000/svg" xmlns:xlink="http://www.w3.org/1999/xlink" xml:space="preserve" xmlns:serif="http://www.serif.com/" style="fill-rule:evenodd;clip-rule:evenodd;stroke-linejoin:round;stroke-miterlimit:2;">
    <g id="Shapes" transform="matrix(4.9609,0,0,4.9609,-289.161,-113.559)">
        <rect x="58.3" y="47.778" width="9.036" height="42.714" style="fill:white;"/>
        <g transform="matrix(0.707107,0.707107,-0.707107,0.707107,78.4046,-21.1141)">
            <rect x="64.689" y="84.086" width="20.101" height="9.036" style="fill:white;"/>
        </g>
        <g transform="matrix(0.707107,0.707107,-0.707107,0.707107,78.3538,-36.1059)">
            <rect x="82.761" y="76.528" width="20.043" height="9.036" style="fill:white;"/>
        </g>
        <g transform="matrix(0.707107,-0.707107,0.707107,0.707107,-39.5052,86.0284)">
            <rect x="84.093" y="90.701" width="20.043" height="9.036" style="fill:white;"/>
        </g>
        <path d="M67.563,36.279L67.285,51.039L58.288,47.765L67.563,36.279Z" style="fill:white;fill-rule:nonzero;"/>
        <rect x="113.664" y="47.697" width="9.036" height="42.714" style="fill:white;"/>
        <g transform="matrix(0.707107,-0.707107,0.707107,0.707107,-39.5559,101.02)">
            <rect x="102.164" y="98.258" width="20.043" height="9.036" style="fill:white;"/>
        </g>
        <path d="M113.437,36.198L122.712,47.683L113.715,50.958L113.437,36.198Z" style="fill:white;fill-rule:nonzero;"/>
        <path d="M85.634,22.891L85.356,37.651L76.36,34.376L85.634,22.891Z" style="fill:white;fill-rule:nonzero;"/>
        <path d="M95.366,22.891L104.64,34.376L95.644,37.651L95.366,22.891Z" style="fill:white;fill-rule:nonzero;"/>
        <rect x="76.371" y="34.307" width="9.036" height="48.628" style="fill:white;"/>
        <rect x="95.593" y="34.307" width="9.036" height="48.628" style="fill:white;"/>
        <rect x="86.064" y="84.25" width="9.036" height="39.429" style="fill:white;"/>
        <g transform="matrix(-3.82857e-16,-1,1,-3.82857e-16,-40.7353,191.507)">
            <rect x="75.386" y="116.121" width="9.036" height="30.393" style="fill:white;"/>
        </g>
    </g>
</svg>
