<?xml version="1.0" encoding="UTF-8" standalone="no"?>
<!DOCTYPE svg PUBLIC "-//W3C//DTD SVG 1.1//EN" "http://www.w3.org/Graphics/SVG/1.1/DTD/svg11.dtd">
<svg width="100%" height="100%" viewBox="0 0 224 224" version="1.1" xmlns="http://www.w3.org/2000/svg" xmlns:xlink="http://www.w3.org/1999/xlink" xml:space="preserve" xmlns:serif="http://www.serif.com/" style="fill-rule:evenodd;clip-rule:evenodd;stroke-linejoin:round;stroke-miterlimit:2;">
    <g transform="matrix(1.33325,0,0,1.33325,-37.3311,-37.3311)">
        <path d="M178.57,118.28L171.38,96.54L164.1,118.28L178.57,118.28Z" style="fill:white;fill-rule:nonzero;"/>
    </g>
    <g transform="matrix(1.33325,0,0,1.33325,-37.3311,-37.3311)">
        <path d="M113.35,144.24C94.3,144.24 80.65,130.49 80.65,111.9C80.65,93.31 94.21,79.56 113.26,79.56C123.5,79.56 132.48,83.78 137.52,90.07C137.88,90.52 137.88,91.06 137.52,91.42L127.46,99.77C127.01,100.13 126.47,100.13 126.11,99.68C123.06,95.91 118.74,93.75 113.35,93.75C103.02,93.75 95.83,101.39 95.83,111.9C95.83,122.41 102.93,130.05 113.08,130.05C120.45,130.05 125.66,126.1 127.36,119.72L112.9,119.72C112.36,119.72 112,119.36 112,118.82L112,107.5C112,106.96 112.36,106.6 112.9,106.6L142.46,106.6C143,106.6 143.36,106.96 143.36,107.5L143.36,113.34C143.36,130.86 130.33,144.24 113.36,144.24M187.74,143.34C187.11,143.34 186.75,143.07 186.57,142.53L182.8,131.12L159.89,131.12L156.12,142.53C155.94,143.07 155.58,143.34 154.95,143.34L142.1,143.34C141.38,143.34 141.11,142.89 141.29,142.26L162.22,81.35C162.4,80.81 162.76,80.45 163.48,80.45L180.1,80.45C180.82,80.45 181.17,80.81 181.36,81.35L196.01,123.97L196.01,52C196.01,38.75 185.26,28 172.01,28L28,28L28,80.46L53.07,80.46C67.26,80.46 76.16,88.99 76.16,101.39C76.16,110.28 71.67,117.11 63.94,120.35L77.69,141.91C78.14,142.63 77.78,143.35 76.97,143.35L62.06,143.35C61.25,143.35 60.8,143.08 60.44,142.45L48.94,122.87L41.75,122.87L41.75,142.28C41.75,142.91 41.3,143.36 40.67,143.36L28,143.36L28,172.01C28,185.27 38.74,196.01 52,196.01L196,196.01L196,143.35L187.73,143.35L187.74,143.34Z" style="fill:white;fill-rule:nonzero;"/>
    </g>
    <g transform="matrix(1.33325,0,0,1.33325,-37.3311,-37.3311)">
        <path d="M60.97,101.84C60.97,96.99 57.38,93.85 52.62,93.85L41.75,93.85L41.75,109.84L52.62,109.84C57.38,109.84 60.97,106.7 60.97,101.85" style="fill:white;fill-rule:nonzero;"/>
    </g>
</svg>
